<svg xmlns="http://www.w3.org/2000/svg" viewBox="0 0 244.775 34.277"><defs><style>.a{fill:#707070;}</style></defs><path class="a" d="M27.979-31.543,27.686-25q-7.031.1-12.7.342l-.1,5.078q7.324-.732,10.889-.781l-.1,6.543L14.99-14.551l.342,5.957a73.641,73.641,0,0,0,12.4-.781l-.2,8.008q-5.908.2-10.645.2A78.742,78.742,0,0,1,6.152-1.66q-.391-10.3-.391-21,0-4.443.049-8.984,4.688-.146,9.717-.146Q22.314-31.787,27.979-31.543ZM68.945-5.371,63.428.586,53.027-9.766Q43.994-1.953,41.895-.244L36.426-6.689,48.584-17.578,37.646-27.49l5.518-5.176q3.271,3.809,9.57,10.742,4-3.369,6.885-6.055,3.467-3.223,5.518-4.834l3.809,6.3q-7.031,6.641-11.182,10.791Q66.895-7.422,68.945-5.371Zm40.479,3.857q-5.029.537-9.424.928Q98.584-5.078,97.217-8.5L86.963-8.35,83.838-.928,76.318-2.49Q82.373-15.723,85.6-21.973q.977-1.9,6.445-11.719,4.2,6.982,9.668,17.139Q106.738-7.227,109.424-1.514ZM95.068-15.771q-.684-1.562-3.32-7.178l-3.223,7.373A53.286,53.286,0,0,0,95.068-15.771Zm59.521,14.4-8.838-.244.293-20.752q-7.031,9.57-9.668,12.939-6.445-9.814-10.156-14.893l.83,22.852-7.666.1q0-19.727.244-29.883l7.764-.293,9.18,11.133,10.547-11.182,6.592-.2ZM188.135-20.8q.342,6.592-4.492,10.01-4.248,3.027-11.035,2.734l-.049,6.738-6.982.146.146-30.225a34.5,34.5,0,0,1,7.471-.879A18.018,18.018,0,0,1,183.3-29.639,10.651,10.651,0,0,1,188.135-20.8Zm-7.959.1q-.879-5.566-8.057-5.176l.391,12.5a7.913,7.913,0,0,0,5.444-1.44,5.538,5.538,0,0,0,2.319-4.761A7.485,7.485,0,0,0,180.176-20.7ZM218.75-10.01l-.293,8.545q-6.543.244-11.523.244a78.684,78.684,0,0,1-8.984-.342Q197.8-25.1,197.51-31.836h8.5L204.98-8.789Zm31.787-21.533L250.244-25q-7.031.1-12.7.342l-.1,5.078q7.324-.732,10.889-.781l-.1,6.543-10.693-.732.342,5.957a73.641,73.641,0,0,0,12.4-.781l-.2,8.008q-5.908.2-10.645.2a78.742,78.742,0,0,1-10.742-.488q-.391-10.3-.391-21,0-4.443.049-8.984,4.688-.146,9.717-.146Q244.873-31.787,250.537-31.543Z" transform="translate(-5.762 33.691)"/></svg>